<?xml version="1.0" encoding="UTF-8" standalone="no"?>
<!DOCTYPE svg PUBLIC "-//W3C//DTD SVG 1.1//EN"
 "http://www.w3.org/Graphics/SVG/1.1/DTD/svg11.dtd">
<!-- Generated by graphviz version 2.43.0 (0)
 -->
<!-- Title: Graphical Class Hierarchy Pages: 1 -->
<svg width="304pt" height="384pt"
 viewBox="0.00 0.00 304.00 384.00" xmlns="http://www.w3.org/2000/svg" xmlns:xlink="http://www.w3.org/1999/xlink">
<g id="graph0" class="graph" transform="scale(1 1) rotate(0) translate(4 380)">
<title>Graphical Class Hierarchy</title>
<!-- Node0 -->
<g id="Node000000" class="node">
<title>Node0</title>
<g id="a_Node000000"><a xlink:title=" ">
<polygon fill="#e0e0e0" stroke="#999999" points="100,-197 0,-197 0,-178 100,-178 100,-197"/>
<text text-anchor="middle" x="50" y="-185" font-family="Helvetica,sans-Serif" font-size="10.00">Physics::Register</text>
</a>
</g>
</g>
<!-- Node1 -->
<g id="Node000001" class="node">
<title>Node1</title>
<g id="a_Node000001"><a xlink:href="classamr__wind_1_1_a_b_l.html" target="_top" xlink:title=" ">
<polygon fill="white" stroke="#666666" points="260.5,-376 171.5,-376 171.5,-357 260.5,-357 260.5,-376"/>
<text text-anchor="middle" x="216" y="-364" font-family="Helvetica,sans-Serif" font-size="10.00">amr_wind::ABL</text>
</a>
</g>
</g>
<!-- Node0&#45;&gt;Node1 -->
<g id="edge199_Node000000_Node000001" class="edge">
<title>Node0&#45;&gt;Node1</title>
<g id="a_edge199_Node000000_Node000001"><a xlink:title=" ">
<path fill="none" stroke="#63b8ff" d="M55.81,-207.34C65.16,-241.47 89.09,-311.15 136,-347.5 146.15,-355.36 159.06,-360.04 171.5,-362.79"/>
<polygon fill="#63b8ff" stroke="#63b8ff" points="59.09,-206.02 53.19,-197.22 52.31,-207.78 59.09,-206.02"/>
</a>
</g>
</g>
<!-- Node2 -->
<g id="Node000002" class="node">
<title>Node2</title>
<g id="a_Node000002"><a xlink:href="classamr__wind_1_1_actuator_source_tagging.html" target="_top" xlink:title=" ">
<polygon fill="white" stroke="#666666" points="288.5,-338.5 143.5,-338.5 143.5,-308.5 288.5,-308.5 288.5,-338.5"/>
<text text-anchor="start" x="151.5" y="-326.5" font-family="Helvetica,sans-Serif" font-size="10.00">amr_wind::ActuatorSource</text>
<text text-anchor="middle" x="216" y="-315.5" font-family="Helvetica,sans-Serif" font-size="10.00">Tagging</text>
</a>
</g>
</g>
<!-- Node0&#45;&gt;Node2 -->
<g id="edge200_Node000000_Node000002" class="edge">
<title>Node0&#45;&gt;Node2</title>
<g id="a_edge200_Node000000_Node000002"><a xlink:title=" ">
<path fill="none" stroke="#63b8ff" d="M60.44,-206.38C73.86,-231.33 100.79,-274.98 136,-299.5 140.94,-302.94 146.39,-305.9 152.04,-308.44"/>
<polygon fill="#63b8ff" stroke="#63b8ff" points="63.39,-204.48 55.67,-197.23 57.19,-207.71 63.39,-204.48"/>
</a>
</g>
</g>
<!-- Node3 -->
<g id="Node000003" class="node">
<title>Node3</title>
<g id="a_Node000003"><a xlink:href="classamr__wind_1_1_boussinesq_bubble.html" target="_top" xlink:title=" ">
<polygon fill="white" stroke="#666666" points="296,-290 136,-290 136,-271 296,-271 296,-290"/>
<text text-anchor="middle" x="216" y="-278" font-family="Helvetica,sans-Serif" font-size="10.00">amr_wind::BoussinesqBubble</text>
</a>
</g>
</g>
<!-- Node0&#45;&gt;Node3 -->
<g id="edge201_Node000000_Node000003" class="edge">
<title>Node0&#45;&gt;Node3</title>
<g id="a_edge201_Node000000_Node000003"><a xlink:title=" ">
<path fill="none" stroke="#63b8ff" d="M65.87,-204.95C81.55,-222.21 107.85,-248.08 136,-262.5 142.64,-265.9 149.91,-268.66 157.27,-270.91"/>
<polygon fill="#63b8ff" stroke="#63b8ff" points="68.31,-202.42 59.06,-197.25 63.06,-207.06 68.31,-202.42"/>
</a>
</g>
</g>
<!-- Node4 -->
<g id="Node000004" class="node">
<title>Node4</title>
<g id="a_Node000004"><a xlink:href="classamr__wind_1_1_breaking_waves.html" target="_top" xlink:title=" ">
<polygon fill="white" stroke="#666666" points="289,-253 143,-253 143,-234 289,-234 289,-253"/>
<text text-anchor="middle" x="216" y="-241" font-family="Helvetica,sans-Serif" font-size="10.00">amr_wind::BreakingWaves</text>
</a>
</g>
</g>
<!-- Node0&#45;&gt;Node4 -->
<g id="edge202_Node000000_Node000004" class="edge">
<title>Node0&#45;&gt;Node4</title>
<g id="a_edge202_Node000000_Node000004"><a xlink:title=" ">
<path fill="none" stroke="#63b8ff" d="M78.5,-201.45C94.88,-209.34 116.26,-218.91 136,-225.5 145.61,-228.71 156.06,-231.53 166.12,-233.94"/>
<polygon fill="#63b8ff" stroke="#63b8ff" points="80,-198.29 69.48,-197.04 76.93,-204.58 80,-198.29"/>
</a>
</g>
</g>
<!-- Node5 -->
<g id="Node000005" class="node">
<title>Node5</title>
<g id="a_Node000005"><a xlink:href="classamr__wind_1_1_dam_break.html" target="_top" xlink:title=" ">
<polygon fill="white" stroke="#666666" points="277,-216 155,-216 155,-197 277,-197 277,-216"/>
<text text-anchor="middle" x="216" y="-204" font-family="Helvetica,sans-Serif" font-size="10.00">amr_wind::DamBreak</text>
</a>
</g>
</g>
<!-- Node0&#45;&gt;Node5 -->
<g id="edge203_Node000000_Node000005" class="edge">
<title>Node0&#45;&gt;Node5</title>
<g id="a_edge203_Node000000_Node000005"><a xlink:title=" ">
<path fill="none" stroke="#63b8ff" d="M110.5,-194.39C124.92,-196.06 140.35,-197.85 154.81,-199.53"/>
<polygon fill="#63b8ff" stroke="#63b8ff" points="110.54,-190.87 100.21,-193.2 109.74,-197.83 110.54,-190.87"/>
</a>
</g>
</g>
<!-- Node6 -->
<g id="Node000006" class="node">
<title>Node6</title>
<g id="a_Node000006"><a xlink:href="classamr__wind_1_1_ekman_spiral.html" target="_top" xlink:title=" ">
<polygon fill="white" stroke="#666666" points="282,-179 150,-179 150,-160 282,-160 282,-179"/>
<text text-anchor="middle" x="216" y="-167" font-family="Helvetica,sans-Serif" font-size="10.00">amr_wind::EkmanSpiral</text>
</a>
</g>
</g>
<!-- Node0&#45;&gt;Node6 -->
<g id="edge204_Node000000_Node000006" class="edge">
<title>Node0&#45;&gt;Node6</title>
<g id="a_edge204_Node000000_Node000006"><a xlink:title=" ">
<path fill="none" stroke="#63b8ff" d="M110.28,-180.99C123.1,-179.59 136.71,-178.09 149.74,-176.66"/>
<polygon fill="#63b8ff" stroke="#63b8ff" points="109.76,-177.53 100.21,-182.1 110.53,-184.49 109.76,-177.53"/>
</a>
</g>
</g>
<!-- Node7 -->
<g id="Node000007" class="node">
<title>Node7</title>
<g id="a_Node000007"><a xlink:href="classamr__wind_1_1_free_stream.html" target="_top" xlink:title=" ">
<polygon fill="white" stroke="#666666" points="279.5,-142 152.5,-142 152.5,-123 279.5,-123 279.5,-142"/>
<text text-anchor="middle" x="216" y="-130" font-family="Helvetica,sans-Serif" font-size="10.00">amr_wind::FreeStream</text>
</a>
</g>
</g>
<!-- Node0&#45;&gt;Node7 -->
<g id="edge205_Node000000_Node000007" class="edge">
<title>Node0&#45;&gt;Node7</title>
<g id="a_edge205_Node000000_Node000007"><a xlink:title=" ">
<path fill="none" stroke="#63b8ff" d="M80.35,-173.66C96.52,-166.39 117.09,-157.73 136,-151.5 146.72,-147.97 158.45,-144.79 169.52,-142.09"/>
<polygon fill="#63b8ff" stroke="#63b8ff" points="78.55,-170.63 70.91,-177.96 81.46,-177 78.55,-170.63"/>
</a>
</g>
</g>
<!-- Node8 -->
<g id="Node000008" class="node">
<title>Node8</title>
<g id="a_Node000008"><a xlink:href="classamr__wind_1_1_intermittency.html" target="_top" xlink:title=" ">
<polygon fill="white" stroke="#666666" points="284.5,-105 147.5,-105 147.5,-86 284.5,-86 284.5,-105"/>
<text text-anchor="middle" x="216" y="-93" font-family="Helvetica,sans-Serif" font-size="10.00">amr_wind::Intermittency</text>
</a>
</g>
</g>
<!-- Node0&#45;&gt;Node8 -->
<g id="edge206_Node000000_Node000008" class="edge">
<title>Node0&#45;&gt;Node8</title>
<g id="a_edge206_Node000000_Node000008"><a xlink:title=" ">
<path fill="none" stroke="#63b8ff" d="M66.25,-170.33C82.07,-153.6 108.32,-128.66 136,-114.5 143.54,-110.65 151.88,-107.55 160.24,-105.08"/>
<polygon fill="#63b8ff" stroke="#63b8ff" points="63.57,-168.08 59.37,-177.81 68.72,-172.82 63.57,-168.08"/>
</a>
</g>
</g>
<!-- Node9 -->
<g id="Node000009" class="node">
<title>Node9</title>
<g id="a_Node000009"><a xlink:href="classamr__wind_1_1_met_mast_marking_1_1_met_mast_marking.html" target="_top" xlink:title=" ">
<polygon fill="white" stroke="#666666" points="292.5,-67.5 139.5,-67.5 139.5,-37.5 292.5,-37.5 292.5,-67.5"/>
<text text-anchor="start" x="147.5" y="-55.5" font-family="Helvetica,sans-Serif" font-size="10.00">amr_wind::MetMastMarking</text>
<text text-anchor="middle" x="216" y="-44.5" font-family="Helvetica,sans-Serif" font-size="10.00">::MetMastMarking</text>
</a>
</g>
</g>
<!-- Node0&#45;&gt;Node9 -->
<g id="edge207_Node000000_Node000009" class="edge">
<title>Node0&#45;&gt;Node9</title>
<g id="a_edge207_Node000000_Node000009"><a xlink:title=" ">
<path fill="none" stroke="#63b8ff" d="M60.56,-169.02C74.13,-144.59 101.22,-101.79 136,-77.5 141.54,-73.63 147.71,-70.34 154.09,-67.54"/>
<polygon fill="#63b8ff" stroke="#63b8ff" points="57.4,-167.52 55.74,-177.98 63.56,-170.83 57.4,-167.52"/>
</a>
</g>
</g>
<!-- Node10 -->
<g id="Node000010" class="node">
<title>Node10</title>
<g id="a_Node000010"><a xlink:href="classamr__wind_1_1_multi_phase.html" target="_top" xlink:title=" ">
<polygon fill="white" stroke="#666666" points="278.5,-19 153.5,-19 153.5,0 278.5,0 278.5,-19"/>
<text text-anchor="middle" x="216" y="-7" font-family="Helvetica,sans-Serif" font-size="10.00">amr_wind::MultiPhase</text>
</a>
</g>
</g>
<!-- Node0&#45;&gt;Node10 -->
<g id="edge208_Node000000_Node000010" class="edge">
<title>Node0&#45;&gt;Node10</title>
<g id="a_edge208_Node000000_Node000010"><a xlink:title=" ">
<path fill="none" stroke="#63b8ff" d="M55.85,-167.78C65.25,-133.86 89.27,-64.61 136,-28.5 141.13,-24.53 146.97,-21.38 153.1,-18.87"/>
<polygon fill="#63b8ff" stroke="#63b8ff" points="52.36,-167.28 53.21,-177.84 59.13,-169.05 52.36,-167.28"/>
</a>
</g>
</g>
</g>
</svg>
